<mxfile host="app.diagrams.net" agent="Mozilla/5.0 (X11; Ubuntu; Linux x86_64; rv:132.0) Gecko/20100101 Firefox/132.0" version="24.8.6">
  <diagram name="Страница — 1" id="IFkf7Dg4jp8gj-BHcVzv">
    <mxGraphModel dx="1170" dy="638" grid="1" gridSize="10" guides="1" tooltips="1" connect="1" arrows="1" fold="1" page="1" pageScale="1" pageWidth="827" pageHeight="1169" math="0" shadow="0">
      <root>
        <mxCell id="0" />
        <mxCell id="1" parent="0" />
        <mxCell id="8YlUr7RpTHdSahh0esPy-138" value="&lt;div&gt;&lt;br&gt;&lt;/div&gt;&lt;div&gt;&lt;br&gt;&lt;/div&gt;&lt;div&gt;&lt;br&gt;&lt;/div&gt;&lt;div&gt;VLAN10&lt;br&gt;&lt;/div&gt;" style="whiteSpace=wrap;html=1;fillColor=#76608a;strokeColor=#432D57;fontColor=#ffffff;verticalAlign=bottom;" vertex="1" parent="1">
          <mxGeometry x="140" y="450" width="530" height="350" as="geometry" />
        </mxCell>
        <mxCell id="8YlUr7RpTHdSahh0esPy-137" value="&lt;div&gt;&lt;br&gt;&lt;/div&gt;&lt;div&gt;&lt;br&gt;&lt;/div&gt;&lt;div&gt;&lt;br&gt;&lt;/div&gt;&lt;div&gt;VLAN30&lt;br&gt;&lt;/div&gt;" style="whiteSpace=wrap;html=1;fillColor=#6d8764;strokeColor=#3A5431;fontColor=#ffffff;verticalAlign=bottom;" vertex="1" parent="1">
          <mxGeometry x="30" y="410" width="90" height="240" as="geometry" />
        </mxCell>
        <mxCell id="8YlUr7RpTHdSahh0esPy-133" value="&lt;div&gt;&lt;br&gt;&lt;/div&gt;&lt;div&gt;&lt;br&gt;&lt;/div&gt;&lt;div&gt;&lt;br&gt;&lt;/div&gt;&lt;div&gt;VLAN20&lt;br&gt;&lt;/div&gt;" style="whiteSpace=wrap;html=1;fillColor=#fa6800;strokeColor=#C73500;fontColor=#000000;verticalAlign=bottom;" vertex="1" parent="1">
          <mxGeometry x="690" y="410" width="90" height="240" as="geometry" />
        </mxCell>
        <mxCell id="8YlUr7RpTHdSahh0esPy-1" value="" style="sketch=0;points=[[0.015,0.015,0],[0.985,0.015,0],[0.985,0.985,0],[0.015,0.985,0],[0.25,0,0],[0.5,0,0],[0.75,0,0],[1,0.25,0],[1,0.5,0],[1,0.75,0],[0.75,1,0],[0.5,1,0],[0.25,1,0],[0,0.75,0],[0,0.5,0],[0,0.25,0]];verticalLabelPosition=bottom;html=1;verticalAlign=top;aspect=fixed;align=center;pointerEvents=1;shape=mxgraph.cisco19.rect;prIcon=l2_switch;fillColor=#FAFAFA;strokeColor=#005073;" vertex="1" parent="1">
          <mxGeometry x="330" y="370" width="50" height="50" as="geometry" />
        </mxCell>
        <mxCell id="8YlUr7RpTHdSahh0esPy-3" value="" style="sketch=0;points=[[0.5,0,0],[1,0.5,0],[0.5,1,0],[0,0.5,0],[0.145,0.145,0],[0.8555,0.145,0],[0.855,0.8555,0],[0.145,0.855,0]];verticalLabelPosition=bottom;html=1;verticalAlign=top;aspect=fixed;align=center;pointerEvents=1;shape=mxgraph.cisco19.rect;prIcon=router;fillColor=#FAFAFA;strokeColor=#005073;" vertex="1" parent="1">
          <mxGeometry x="380" y="250" width="50" height="50" as="geometry" />
        </mxCell>
        <mxCell id="8YlUr7RpTHdSahh0esPy-4" value="DB2" style="sketch=0;points=[[0.015,0.015,0],[0.985,0.015,0],[0.985,0.985,0],[0.015,0.985,0],[0.25,0,0],[0.5,0,0],[0.75,0,0],[1,0.25,0],[1,0.5,0],[1,0.75,0],[0.75,1,0],[0.5,1,0],[0.25,1,0],[0,0.75,0],[0,0.5,0],[0,0.25,0]];verticalLabelPosition=bottom;html=1;verticalAlign=top;aspect=fixed;align=center;pointerEvents=1;shape=mxgraph.cisco19.rect;prIcon=database_relational;fillColor=#FAFAFA;strokeColor=#005073;" vertex="1" parent="1">
          <mxGeometry x="60" y="530" width="50" height="50" as="geometry" />
        </mxCell>
        <mxCell id="8YlUr7RpTHdSahh0esPy-5" value="DB1" style="sketch=0;points=[[0.015,0.015,0],[0.985,0.015,0],[0.985,0.985,0],[0.015,0.985,0],[0.25,0,0],[0.5,0,0],[0.75,0,0],[1,0.25,0],[1,0.5,0],[1,0.75,0],[0.75,1,0],[0.5,1,0],[0.25,1,0],[0,0.75,0],[0,0.5,0],[0,0.25,0]];verticalLabelPosition=bottom;html=1;verticalAlign=top;aspect=fixed;align=center;pointerEvents=1;shape=mxgraph.cisco19.rect;prIcon=database_relational;fillColor=#FAFAFA;strokeColor=#005073;" vertex="1" parent="1">
          <mxGeometry x="60" y="440" width="50" height="50" as="geometry" />
        </mxCell>
        <mxCell id="8YlUr7RpTHdSahh0esPy-6" value="WEB1" style="sketch=0;points=[[0.015,0.015,0],[0.985,0.015,0],[0.985,0.985,0],[0.015,0.985,0],[0.25,0,0],[0.5,0,0],[0.75,0,0],[1,0.25,0],[1,0.5,0],[1,0.75,0],[0.75,1,0],[0.5,1,0],[0.25,1,0],[0,0.75,0],[0,0.5,0],[0,0.25,0]];verticalLabelPosition=bottom;html=1;verticalAlign=top;aspect=fixed;align=center;pointerEvents=1;shape=mxgraph.cisco19.server;fillColor=#005073;strokeColor=none;" vertex="1" parent="1">
          <mxGeometry x="721.25" y="450" width="27.500000000000004" height="50" as="geometry" />
        </mxCell>
        <mxCell id="8YlUr7RpTHdSahh0esPy-7" value="WEB2" style="sketch=0;points=[[0.015,0.015,0],[0.985,0.015,0],[0.985,0.985,0],[0.015,0.985,0],[0.25,0,0],[0.5,0,0],[0.75,0,0],[1,0.25,0],[1,0.5,0],[1,0.75,0],[0.75,1,0],[0.5,1,0],[0.25,1,0],[0,0.75,0],[0,0.5,0],[0,0.25,0]];verticalLabelPosition=bottom;html=1;verticalAlign=top;aspect=fixed;align=center;pointerEvents=1;shape=mxgraph.cisco19.server;fillColor=#005073;strokeColor=none;" vertex="1" parent="1">
          <mxGeometry x="721.25" y="540" width="27.500000000000004" height="50" as="geometry" />
        </mxCell>
        <mxCell id="8YlUr7RpTHdSahh0esPy-8" value="" style="points=[[0.03,0.03,0],[0.5,0,0],[0.97,0.03,0],[1,0.4,0],[0.97,0.745,0],[0.5,1,0],[0.03,0.745,0],[0,0.4,0]];verticalLabelPosition=bottom;sketch=0;html=1;verticalAlign=top;aspect=fixed;align=center;pointerEvents=1;shape=mxgraph.cisco19.workstation;fillColor=#005073;strokeColor=none;" vertex="1" parent="1">
          <mxGeometry x="330" y="460" width="50" height="40" as="geometry" />
        </mxCell>
        <mxCell id="8YlUr7RpTHdSahh0esPy-9" value="" style="points=[[0.03,0.03,0],[0.5,0,0],[0.97,0.03,0],[1,0.4,0],[0.97,0.745,0],[0.5,1,0],[0.03,0.745,0],[0,0.4,0]];verticalLabelPosition=bottom;sketch=0;html=1;verticalAlign=top;aspect=fixed;align=center;pointerEvents=1;shape=mxgraph.cisco19.workstation;fillColor=#005073;strokeColor=none;" vertex="1" parent="1">
          <mxGeometry x="330" y="530" width="50" height="40" as="geometry" />
        </mxCell>
        <mxCell id="8YlUr7RpTHdSahh0esPy-10" value="" style="points=[[0.03,0.03,0],[0.5,0,0],[0.97,0.03,0],[1,0.4,0],[0.97,0.745,0],[0.5,1,0],[0.03,0.745,0],[0,0.4,0]];verticalLabelPosition=bottom;sketch=0;html=1;verticalAlign=top;aspect=fixed;align=center;pointerEvents=1;shape=mxgraph.cisco19.workstation;fillColor=#005073;strokeColor=none;" vertex="1" parent="1">
          <mxGeometry x="330" y="599.25" width="50" height="40" as="geometry" />
        </mxCell>
        <mxCell id="8YlUr7RpTHdSahh0esPy-11" value="" style="points=[[0.03,0.03,0],[0.5,0,0],[0.97,0.03,0],[1,0.4,0],[0.97,0.745,0],[0.5,1,0],[0.03,0.745,0],[0,0.4,0]];verticalLabelPosition=bottom;sketch=0;html=1;verticalAlign=top;aspect=fixed;align=center;pointerEvents=1;shape=mxgraph.cisco19.workstation;fillColor=#005073;strokeColor=none;" vertex="1" parent="1">
          <mxGeometry x="330" y="670" width="50" height="40" as="geometry" />
        </mxCell>
        <mxCell id="8YlUr7RpTHdSahh0esPy-12" value="" style="points=[[0.03,0.03,0],[0.5,0,0],[0.97,0.03,0],[1,0.4,0],[0.97,0.745,0],[0.5,1,0],[0.03,0.745,0],[0,0.4,0]];verticalLabelPosition=bottom;sketch=0;html=1;verticalAlign=top;aspect=fixed;align=center;pointerEvents=1;shape=mxgraph.cisco19.workstation;fillColor=#005073;strokeColor=none;" vertex="1" parent="1">
          <mxGeometry x="270" y="460" width="50" height="40" as="geometry" />
        </mxCell>
        <mxCell id="8YlUr7RpTHdSahh0esPy-13" value="" style="points=[[0.03,0.03,0],[0.5,0,0],[0.97,0.03,0],[1,0.4,0],[0.97,0.745,0],[0.5,1,0],[0.03,0.745,0],[0,0.4,0]];verticalLabelPosition=bottom;sketch=0;html=1;verticalAlign=top;aspect=fixed;align=center;pointerEvents=1;shape=mxgraph.cisco19.workstation;fillColor=#005073;strokeColor=none;" vertex="1" parent="1">
          <mxGeometry x="270" y="530" width="50" height="40" as="geometry" />
        </mxCell>
        <mxCell id="8YlUr7RpTHdSahh0esPy-14" value="" style="points=[[0.03,0.03,0],[0.5,0,0],[0.97,0.03,0],[1,0.4,0],[0.97,0.745,0],[0.5,1,0],[0.03,0.745,0],[0,0.4,0]];verticalLabelPosition=bottom;sketch=0;html=1;verticalAlign=top;aspect=fixed;align=center;pointerEvents=1;shape=mxgraph.cisco19.workstation;fillColor=#005073;strokeColor=none;" vertex="1" parent="1">
          <mxGeometry x="270" y="599.25" width="50" height="40" as="geometry" />
        </mxCell>
        <mxCell id="8YlUr7RpTHdSahh0esPy-15" value="" style="points=[[0.03,0.03,0],[0.5,0,0],[0.97,0.03,0],[1,0.4,0],[0.97,0.745,0],[0.5,1,0],[0.03,0.745,0],[0,0.4,0]];verticalLabelPosition=bottom;sketch=0;html=1;verticalAlign=top;aspect=fixed;align=center;pointerEvents=1;shape=mxgraph.cisco19.workstation;fillColor=#005073;strokeColor=none;" vertex="1" parent="1">
          <mxGeometry x="270" y="670" width="50" height="40" as="geometry" />
        </mxCell>
        <mxCell id="8YlUr7RpTHdSahh0esPy-16" value="" style="points=[[0.03,0.03,0],[0.5,0,0],[0.97,0.03,0],[1,0.4,0],[0.97,0.745,0],[0.5,1,0],[0.03,0.745,0],[0,0.4,0]];verticalLabelPosition=bottom;sketch=0;html=1;verticalAlign=top;aspect=fixed;align=center;pointerEvents=1;shape=mxgraph.cisco19.workstation;fillColor=#005073;strokeColor=none;" vertex="1" parent="1">
          <mxGeometry x="210" y="460" width="50" height="40" as="geometry" />
        </mxCell>
        <mxCell id="8YlUr7RpTHdSahh0esPy-17" value="" style="points=[[0.03,0.03,0],[0.5,0,0],[0.97,0.03,0],[1,0.4,0],[0.97,0.745,0],[0.5,1,0],[0.03,0.745,0],[0,0.4,0]];verticalLabelPosition=bottom;sketch=0;html=1;verticalAlign=top;aspect=fixed;align=center;pointerEvents=1;shape=mxgraph.cisco19.workstation;fillColor=#005073;strokeColor=none;" vertex="1" parent="1">
          <mxGeometry x="210" y="530" width="50" height="40" as="geometry" />
        </mxCell>
        <mxCell id="8YlUr7RpTHdSahh0esPy-18" value="" style="points=[[0.03,0.03,0],[0.5,0,0],[0.97,0.03,0],[1,0.4,0],[0.97,0.745,0],[0.5,1,0],[0.03,0.745,0],[0,0.4,0]];verticalLabelPosition=bottom;sketch=0;html=1;verticalAlign=top;aspect=fixed;align=center;pointerEvents=1;shape=mxgraph.cisco19.workstation;fillColor=#005073;strokeColor=none;" vertex="1" parent="1">
          <mxGeometry x="210" y="599.25" width="50" height="40" as="geometry" />
        </mxCell>
        <mxCell id="8YlUr7RpTHdSahh0esPy-19" value="" style="points=[[0.03,0.03,0],[0.5,0,0],[0.97,0.03,0],[1,0.4,0],[0.97,0.745,0],[0.5,1,0],[0.03,0.745,0],[0,0.4,0]];verticalLabelPosition=bottom;sketch=0;html=1;verticalAlign=top;aspect=fixed;align=center;pointerEvents=1;shape=mxgraph.cisco19.workstation;fillColor=#005073;strokeColor=none;" vertex="1" parent="1">
          <mxGeometry x="210" y="670" width="50" height="40" as="geometry" />
        </mxCell>
        <mxCell id="8YlUr7RpTHdSahh0esPy-20" value="" style="points=[[0.03,0.03,0],[0.5,0,0],[0.97,0.03,0],[1,0.4,0],[0.97,0.745,0],[0.5,1,0],[0.03,0.745,0],[0,0.4,0]];verticalLabelPosition=bottom;sketch=0;html=1;verticalAlign=top;aspect=fixed;align=center;pointerEvents=1;shape=mxgraph.cisco19.workstation;fillColor=#005073;strokeColor=none;" vertex="1" parent="1">
          <mxGeometry x="330" y="740" width="50" height="40" as="geometry" />
        </mxCell>
        <mxCell id="8YlUr7RpTHdSahh0esPy-21" value="" style="points=[[0.03,0.03,0],[0.5,0,0],[0.97,0.03,0],[1,0.4,0],[0.97,0.745,0],[0.5,1,0],[0.03,0.745,0],[0,0.4,0]];verticalLabelPosition=bottom;sketch=0;html=1;verticalAlign=top;aspect=fixed;align=center;pointerEvents=1;shape=mxgraph.cisco19.workstation;fillColor=#005073;strokeColor=none;" vertex="1" parent="1">
          <mxGeometry x="150" y="530" width="50" height="40" as="geometry" />
        </mxCell>
        <mxCell id="8YlUr7RpTHdSahh0esPy-24" value="" style="points=[[0.03,0.03,0],[0.5,0,0],[0.97,0.03,0],[1,0.4,0],[0.97,0.745,0],[0.5,1,0],[0.03,0.745,0],[0,0.4,0]];verticalLabelPosition=bottom;sketch=0;html=1;verticalAlign=top;aspect=fixed;align=center;pointerEvents=1;shape=mxgraph.cisco19.workstation;fillColor=#005073;strokeColor=none;" vertex="1" parent="1">
          <mxGeometry x="270" y="740" width="50" height="40" as="geometry" />
        </mxCell>
        <mxCell id="8YlUr7RpTHdSahh0esPy-25" value="" style="points=[[0.03,0.03,0],[0.5,0,0],[0.97,0.03,0],[1,0.4,0],[0.97,0.745,0],[0.5,1,0],[0.03,0.745,0],[0,0.4,0]];verticalLabelPosition=bottom;sketch=0;html=1;verticalAlign=top;aspect=fixed;align=center;pointerEvents=1;shape=mxgraph.cisco19.workstation;fillColor=#005073;strokeColor=none;" vertex="1" parent="1">
          <mxGeometry x="150" y="599.25" width="50" height="40" as="geometry" />
        </mxCell>
        <mxCell id="8YlUr7RpTHdSahh0esPy-26" value="" style="points=[[0.03,0.03,0],[0.5,0,0],[0.97,0.03,0],[1,0.4,0],[0.97,0.745,0],[0.5,1,0],[0.03,0.745,0],[0,0.4,0]];verticalLabelPosition=bottom;sketch=0;html=1;verticalAlign=top;aspect=fixed;align=center;pointerEvents=1;shape=mxgraph.cisco19.workstation;fillColor=#005073;strokeColor=none;" vertex="1" parent="1">
          <mxGeometry x="150" y="669.75" width="50" height="40" as="geometry" />
        </mxCell>
        <mxCell id="8YlUr7RpTHdSahh0esPy-28" value="" style="points=[[0.03,0.03,0],[0.5,0,0],[0.97,0.03,0],[1,0.4,0],[0.97,0.745,0],[0.5,1,0],[0.03,0.745,0],[0,0.4,0]];verticalLabelPosition=bottom;sketch=0;html=1;verticalAlign=top;aspect=fixed;align=center;pointerEvents=1;shape=mxgraph.cisco19.workstation;fillColor=#005073;strokeColor=none;" vertex="1" parent="1">
          <mxGeometry x="210" y="740" width="50" height="40" as="geometry" />
        </mxCell>
        <mxCell id="8YlUr7RpTHdSahh0esPy-29" value="" style="points=[[0.03,0.03,0],[0.5,0,0],[0.97,0.03,0],[1,0.4,0],[0.97,0.745,0],[0.5,1,0],[0.03,0.745,0],[0,0.4,0]];verticalLabelPosition=bottom;sketch=0;html=1;verticalAlign=top;aspect=fixed;align=center;pointerEvents=1;shape=mxgraph.cisco19.workstation;fillColor=#005073;strokeColor=none;" vertex="1" parent="1">
          <mxGeometry x="150" y="460" width="50" height="40" as="geometry" />
        </mxCell>
        <mxCell id="8YlUr7RpTHdSahh0esPy-30" value="" style="points=[[0.03,0.03,0],[0.5,0,0],[0.97,0.03,0],[1,0.4,0],[0.97,0.745,0],[0.5,1,0],[0.03,0.745,0],[0,0.4,0]];verticalLabelPosition=bottom;sketch=0;html=1;verticalAlign=top;aspect=fixed;align=center;pointerEvents=1;shape=mxgraph.cisco19.workstation;fillColor=#005073;strokeColor=none;" vertex="1" parent="1">
          <mxGeometry x="150" y="740" width="50" height="40" as="geometry" />
        </mxCell>
        <mxCell id="8YlUr7RpTHdSahh0esPy-52" style="edgeStyle=orthogonalEdgeStyle;rounded=0;orthogonalLoop=1;jettySize=auto;html=1;exitX=0.5;exitY=0;exitDx=0;exitDy=0;exitPerimeter=0;entryX=0.5;entryY=1;entryDx=0;entryDy=0;entryPerimeter=0;endArrow=none;endFill=0;" edge="1" parent="1" source="8YlUr7RpTHdSahh0esPy-1" target="8YlUr7RpTHdSahh0esPy-3">
          <mxGeometry relative="1" as="geometry" />
        </mxCell>
        <mxCell id="8YlUr7RpTHdSahh0esPy-54" style="edgeStyle=orthogonalEdgeStyle;rounded=0;orthogonalLoop=1;jettySize=auto;html=1;exitX=0.5;exitY=1;exitDx=0;exitDy=0;exitPerimeter=0;entryX=0.5;entryY=0;entryDx=0;entryDy=0;entryPerimeter=0;" edge="1" parent="1" source="8YlUr7RpTHdSahh0esPy-1" target="8YlUr7RpTHdSahh0esPy-8">
          <mxGeometry relative="1" as="geometry" />
        </mxCell>
        <mxCell id="8YlUr7RpTHdSahh0esPy-55" style="edgeStyle=orthogonalEdgeStyle;rounded=0;orthogonalLoop=1;jettySize=auto;html=1;exitX=0.5;exitY=1;exitDx=0;exitDy=0;exitPerimeter=0;entryX=0.5;entryY=0;entryDx=0;entryDy=0;entryPerimeter=0;" edge="1" parent="1" source="8YlUr7RpTHdSahh0esPy-1" target="8YlUr7RpTHdSahh0esPy-12">
          <mxGeometry relative="1" as="geometry" />
        </mxCell>
        <mxCell id="8YlUr7RpTHdSahh0esPy-56" style="edgeStyle=orthogonalEdgeStyle;rounded=0;orthogonalLoop=1;jettySize=auto;html=1;exitX=0.5;exitY=1;exitDx=0;exitDy=0;exitPerimeter=0;entryX=0.5;entryY=0;entryDx=0;entryDy=0;entryPerimeter=0;" edge="1" parent="1" source="8YlUr7RpTHdSahh0esPy-1" target="8YlUr7RpTHdSahh0esPy-16">
          <mxGeometry relative="1" as="geometry" />
        </mxCell>
        <mxCell id="8YlUr7RpTHdSahh0esPy-57" style="edgeStyle=orthogonalEdgeStyle;rounded=0;orthogonalLoop=1;jettySize=auto;html=1;exitX=0.5;exitY=1;exitDx=0;exitDy=0;exitPerimeter=0;entryX=0.5;entryY=0;entryDx=0;entryDy=0;entryPerimeter=0;" edge="1" parent="1" source="8YlUr7RpTHdSahh0esPy-1" target="8YlUr7RpTHdSahh0esPy-9">
          <mxGeometry relative="1" as="geometry">
            <Array as="points">
              <mxPoint x="355" y="440" />
              <mxPoint x="390" y="440" />
              <mxPoint x="390" y="510" />
              <mxPoint x="355" y="510" />
            </Array>
          </mxGeometry>
        </mxCell>
        <mxCell id="8YlUr7RpTHdSahh0esPy-58" style="edgeStyle=orthogonalEdgeStyle;rounded=0;orthogonalLoop=1;jettySize=auto;html=1;exitX=0.5;exitY=1;exitDx=0;exitDy=0;exitPerimeter=0;entryX=0.5;entryY=0;entryDx=0;entryDy=0;entryPerimeter=0;" edge="1" parent="1" source="8YlUr7RpTHdSahh0esPy-1" target="8YlUr7RpTHdSahh0esPy-13">
          <mxGeometry relative="1" as="geometry">
            <Array as="points">
              <mxPoint x="355" y="440" />
              <mxPoint x="390" y="440" />
              <mxPoint x="390" y="510" />
              <mxPoint x="295" y="510" />
            </Array>
          </mxGeometry>
        </mxCell>
        <mxCell id="8YlUr7RpTHdSahh0esPy-59" style="edgeStyle=orthogonalEdgeStyle;rounded=0;orthogonalLoop=1;jettySize=auto;html=1;exitX=0.5;exitY=1;exitDx=0;exitDy=0;exitPerimeter=0;entryX=0.5;entryY=0;entryDx=0;entryDy=0;entryPerimeter=0;" edge="1" parent="1" source="8YlUr7RpTHdSahh0esPy-1" target="8YlUr7RpTHdSahh0esPy-29">
          <mxGeometry relative="1" as="geometry" />
        </mxCell>
        <mxCell id="8YlUr7RpTHdSahh0esPy-60" style="edgeStyle=orthogonalEdgeStyle;rounded=0;orthogonalLoop=1;jettySize=auto;html=1;exitX=0.5;exitY=1;exitDx=0;exitDy=0;exitPerimeter=0;entryX=0.5;entryY=0;entryDx=0;entryDy=0;entryPerimeter=0;" edge="1" parent="1" source="8YlUr7RpTHdSahh0esPy-1" target="8YlUr7RpTHdSahh0esPy-17">
          <mxGeometry relative="1" as="geometry">
            <Array as="points">
              <mxPoint x="355" y="440" />
              <mxPoint x="390" y="440" />
              <mxPoint x="390" y="510" />
              <mxPoint x="235" y="510" />
            </Array>
          </mxGeometry>
        </mxCell>
        <mxCell id="8YlUr7RpTHdSahh0esPy-61" style="edgeStyle=orthogonalEdgeStyle;rounded=0;orthogonalLoop=1;jettySize=auto;html=1;exitX=0.5;exitY=1;exitDx=0;exitDy=0;exitPerimeter=0;entryX=0.5;entryY=0;entryDx=0;entryDy=0;entryPerimeter=0;" edge="1" parent="1" source="8YlUr7RpTHdSahh0esPy-1" target="8YlUr7RpTHdSahh0esPy-21">
          <mxGeometry relative="1" as="geometry">
            <Array as="points">
              <mxPoint x="355" y="440" />
              <mxPoint x="390" y="440" />
              <mxPoint x="390" y="510" />
              <mxPoint x="175" y="510" />
            </Array>
          </mxGeometry>
        </mxCell>
        <mxCell id="8YlUr7RpTHdSahh0esPy-62" style="edgeStyle=orthogonalEdgeStyle;rounded=0;orthogonalLoop=1;jettySize=auto;html=1;exitX=0.5;exitY=1;exitDx=0;exitDy=0;exitPerimeter=0;entryX=0.5;entryY=0;entryDx=0;entryDy=0;entryPerimeter=0;" edge="1" parent="1" source="8YlUr7RpTHdSahh0esPy-1" target="8YlUr7RpTHdSahh0esPy-10">
          <mxGeometry relative="1" as="geometry">
            <Array as="points">
              <mxPoint x="355" y="440" />
              <mxPoint x="390" y="440" />
              <mxPoint x="390" y="580" />
              <mxPoint x="355" y="580" />
            </Array>
          </mxGeometry>
        </mxCell>
        <mxCell id="8YlUr7RpTHdSahh0esPy-63" style="edgeStyle=orthogonalEdgeStyle;rounded=0;orthogonalLoop=1;jettySize=auto;html=1;exitX=0.5;exitY=1;exitDx=0;exitDy=0;exitPerimeter=0;entryX=0.5;entryY=0;entryDx=0;entryDy=0;entryPerimeter=0;" edge="1" parent="1" source="8YlUr7RpTHdSahh0esPy-1" target="8YlUr7RpTHdSahh0esPy-14">
          <mxGeometry relative="1" as="geometry">
            <Array as="points">
              <mxPoint x="355" y="440" />
              <mxPoint x="390" y="440" />
              <mxPoint x="390" y="580" />
              <mxPoint x="295" y="580" />
            </Array>
          </mxGeometry>
        </mxCell>
        <mxCell id="8YlUr7RpTHdSahh0esPy-64" style="edgeStyle=orthogonalEdgeStyle;rounded=0;orthogonalLoop=1;jettySize=auto;html=1;exitX=0.5;exitY=1;exitDx=0;exitDy=0;exitPerimeter=0;entryX=0.5;entryY=0;entryDx=0;entryDy=0;entryPerimeter=0;" edge="1" parent="1" source="8YlUr7RpTHdSahh0esPy-1" target="8YlUr7RpTHdSahh0esPy-18">
          <mxGeometry relative="1" as="geometry">
            <Array as="points">
              <mxPoint x="355" y="440" />
              <mxPoint x="390" y="440" />
              <mxPoint x="390" y="580" />
              <mxPoint x="235" y="580" />
            </Array>
          </mxGeometry>
        </mxCell>
        <mxCell id="8YlUr7RpTHdSahh0esPy-65" style="edgeStyle=orthogonalEdgeStyle;rounded=0;orthogonalLoop=1;jettySize=auto;html=1;exitX=0.5;exitY=1;exitDx=0;exitDy=0;exitPerimeter=0;entryX=0.5;entryY=0;entryDx=0;entryDy=0;entryPerimeter=0;" edge="1" parent="1" source="8YlUr7RpTHdSahh0esPy-1" target="8YlUr7RpTHdSahh0esPy-25">
          <mxGeometry relative="1" as="geometry">
            <Array as="points">
              <mxPoint x="355" y="440" />
              <mxPoint x="390" y="440" />
              <mxPoint x="390" y="580" />
              <mxPoint x="175" y="580" />
            </Array>
          </mxGeometry>
        </mxCell>
        <mxCell id="8YlUr7RpTHdSahh0esPy-66" style="edgeStyle=orthogonalEdgeStyle;rounded=0;orthogonalLoop=1;jettySize=auto;html=1;entryX=0.5;entryY=0;entryDx=0;entryDy=0;entryPerimeter=0;" edge="1" parent="1" source="8YlUr7RpTHdSahh0esPy-1" target="8YlUr7RpTHdSahh0esPy-11">
          <mxGeometry relative="1" as="geometry">
            <Array as="points">
              <mxPoint x="355" y="440" />
              <mxPoint x="390" y="440" />
              <mxPoint x="390" y="650" />
              <mxPoint x="355" y="650" />
            </Array>
          </mxGeometry>
        </mxCell>
        <mxCell id="8YlUr7RpTHdSahh0esPy-67" style="edgeStyle=orthogonalEdgeStyle;rounded=0;orthogonalLoop=1;jettySize=auto;html=1;exitX=0.5;exitY=1;exitDx=0;exitDy=0;exitPerimeter=0;entryX=0.5;entryY=0;entryDx=0;entryDy=0;entryPerimeter=0;" edge="1" parent="1" source="8YlUr7RpTHdSahh0esPy-1" target="8YlUr7RpTHdSahh0esPy-15">
          <mxGeometry relative="1" as="geometry">
            <Array as="points">
              <mxPoint x="355" y="440" />
              <mxPoint x="390" y="440" />
              <mxPoint x="390" y="650" />
              <mxPoint x="295" y="650" />
            </Array>
          </mxGeometry>
        </mxCell>
        <mxCell id="8YlUr7RpTHdSahh0esPy-70" style="edgeStyle=orthogonalEdgeStyle;rounded=0;orthogonalLoop=1;jettySize=auto;html=1;exitX=0.5;exitY=1;exitDx=0;exitDy=0;exitPerimeter=0;entryX=0.5;entryY=0;entryDx=0;entryDy=0;entryPerimeter=0;" edge="1" parent="1" source="8YlUr7RpTHdSahh0esPy-1" target="8YlUr7RpTHdSahh0esPy-19">
          <mxGeometry relative="1" as="geometry">
            <Array as="points">
              <mxPoint x="355" y="440" />
              <mxPoint x="390" y="440" />
              <mxPoint x="390" y="650" />
              <mxPoint x="235" y="650" />
            </Array>
          </mxGeometry>
        </mxCell>
        <mxCell id="8YlUr7RpTHdSahh0esPy-71" style="edgeStyle=orthogonalEdgeStyle;rounded=0;orthogonalLoop=1;jettySize=auto;html=1;exitX=0.5;exitY=1;exitDx=0;exitDy=0;exitPerimeter=0;entryX=0.5;entryY=0;entryDx=0;entryDy=0;entryPerimeter=0;" edge="1" parent="1" source="8YlUr7RpTHdSahh0esPy-1" target="8YlUr7RpTHdSahh0esPy-26">
          <mxGeometry relative="1" as="geometry">
            <Array as="points">
              <mxPoint x="355" y="440" />
              <mxPoint x="390" y="440" />
              <mxPoint x="390" y="650" />
              <mxPoint x="175" y="650" />
            </Array>
          </mxGeometry>
        </mxCell>
        <mxCell id="8YlUr7RpTHdSahh0esPy-72" style="edgeStyle=orthogonalEdgeStyle;rounded=0;orthogonalLoop=1;jettySize=auto;html=1;exitX=0.5;exitY=1;exitDx=0;exitDy=0;exitPerimeter=0;entryX=0.5;entryY=0;entryDx=0;entryDy=0;entryPerimeter=0;" edge="1" parent="1" source="8YlUr7RpTHdSahh0esPy-1" target="8YlUr7RpTHdSahh0esPy-20">
          <mxGeometry relative="1" as="geometry">
            <Array as="points">
              <mxPoint x="355" y="440" />
              <mxPoint x="390" y="440" />
              <mxPoint x="390" y="720" />
              <mxPoint x="355" y="720" />
            </Array>
          </mxGeometry>
        </mxCell>
        <mxCell id="8YlUr7RpTHdSahh0esPy-73" style="edgeStyle=orthogonalEdgeStyle;rounded=0;orthogonalLoop=1;jettySize=auto;html=1;exitX=0.5;exitY=1;exitDx=0;exitDy=0;exitPerimeter=0;entryX=0.5;entryY=0;entryDx=0;entryDy=0;entryPerimeter=0;" edge="1" parent="1" source="8YlUr7RpTHdSahh0esPy-1" target="8YlUr7RpTHdSahh0esPy-24">
          <mxGeometry relative="1" as="geometry">
            <Array as="points">
              <mxPoint x="355" y="440" />
              <mxPoint x="390" y="440" />
              <mxPoint x="390" y="720" />
              <mxPoint x="295" y="720" />
            </Array>
          </mxGeometry>
        </mxCell>
        <mxCell id="8YlUr7RpTHdSahh0esPy-74" style="edgeStyle=orthogonalEdgeStyle;rounded=0;orthogonalLoop=1;jettySize=auto;html=1;exitX=0.5;exitY=1;exitDx=0;exitDy=0;exitPerimeter=0;entryX=0.5;entryY=0;entryDx=0;entryDy=0;entryPerimeter=0;" edge="1" parent="1" source="8YlUr7RpTHdSahh0esPy-1" target="8YlUr7RpTHdSahh0esPy-28">
          <mxGeometry relative="1" as="geometry">
            <Array as="points">
              <mxPoint x="355" y="440" />
              <mxPoint x="390" y="440" />
              <mxPoint x="390" y="720" />
              <mxPoint x="235" y="720" />
            </Array>
          </mxGeometry>
        </mxCell>
        <mxCell id="8YlUr7RpTHdSahh0esPy-75" style="edgeStyle=orthogonalEdgeStyle;rounded=0;orthogonalLoop=1;jettySize=auto;html=1;exitX=0.5;exitY=1;exitDx=0;exitDy=0;exitPerimeter=0;entryX=0.5;entryY=0;entryDx=0;entryDy=0;entryPerimeter=0;" edge="1" parent="1" source="8YlUr7RpTHdSahh0esPy-1" target="8YlUr7RpTHdSahh0esPy-30">
          <mxGeometry relative="1" as="geometry">
            <Array as="points">
              <mxPoint x="355" y="440" />
              <mxPoint x="390" y="440" />
              <mxPoint x="390" y="720" />
              <mxPoint x="175" y="720" />
            </Array>
          </mxGeometry>
        </mxCell>
        <mxCell id="8YlUr7RpTHdSahh0esPy-76" value="" style="sketch=0;points=[[0.015,0.015,0],[0.985,0.015,0],[0.985,0.985,0],[0.015,0.985,0],[0.25,0,0],[0.5,0,0],[0.75,0,0],[1,0.25,0],[1,0.5,0],[1,0.75,0],[0.75,1,0],[0.5,1,0],[0.25,1,0],[0,0.75,0],[0,0.5,0],[0,0.25,0]];verticalLabelPosition=bottom;html=1;verticalAlign=top;aspect=fixed;align=center;pointerEvents=1;shape=mxgraph.cisco19.rect;prIcon=l2_switch;fillColor=#FAFAFA;strokeColor=#005073;" vertex="1" parent="1">
          <mxGeometry x="430" y="370" width="50" height="50" as="geometry" />
        </mxCell>
        <mxCell id="8YlUr7RpTHdSahh0esPy-77" value="" style="points=[[0.03,0.03,0],[0.5,0,0],[0.97,0.03,0],[1,0.4,0],[0.97,0.745,0],[0.5,1,0],[0.03,0.745,0],[0,0.4,0]];verticalLabelPosition=bottom;sketch=0;html=1;verticalAlign=top;aspect=fixed;align=center;pointerEvents=1;shape=mxgraph.cisco19.workstation;fillColor=#005073;strokeColor=none;" vertex="1" parent="1">
          <mxGeometry x="610" y="460" width="50" height="40" as="geometry" />
        </mxCell>
        <mxCell id="8YlUr7RpTHdSahh0esPy-78" value="" style="points=[[0.03,0.03,0],[0.5,0,0],[0.97,0.03,0],[1,0.4,0],[0.97,0.745,0],[0.5,1,0],[0.03,0.745,0],[0,0.4,0]];verticalLabelPosition=bottom;sketch=0;html=1;verticalAlign=top;aspect=fixed;align=center;pointerEvents=1;shape=mxgraph.cisco19.workstation;fillColor=#005073;strokeColor=none;" vertex="1" parent="1">
          <mxGeometry x="610" y="530" width="50" height="40" as="geometry" />
        </mxCell>
        <mxCell id="8YlUr7RpTHdSahh0esPy-79" value="" style="points=[[0.03,0.03,0],[0.5,0,0],[0.97,0.03,0],[1,0.4,0],[0.97,0.745,0],[0.5,1,0],[0.03,0.745,0],[0,0.4,0]];verticalLabelPosition=bottom;sketch=0;html=1;verticalAlign=top;aspect=fixed;align=center;pointerEvents=1;shape=mxgraph.cisco19.workstation;fillColor=#005073;strokeColor=none;" vertex="1" parent="1">
          <mxGeometry x="610" y="599.25" width="50" height="40" as="geometry" />
        </mxCell>
        <mxCell id="8YlUr7RpTHdSahh0esPy-80" value="" style="points=[[0.03,0.03,0],[0.5,0,0],[0.97,0.03,0],[1,0.4,0],[0.97,0.745,0],[0.5,1,0],[0.03,0.745,0],[0,0.4,0]];verticalLabelPosition=bottom;sketch=0;html=1;verticalAlign=top;aspect=fixed;align=center;pointerEvents=1;shape=mxgraph.cisco19.workstation;fillColor=#005073;strokeColor=none;" vertex="1" parent="1">
          <mxGeometry x="610" y="670" width="50" height="40" as="geometry" />
        </mxCell>
        <mxCell id="8YlUr7RpTHdSahh0esPy-81" value="" style="points=[[0.03,0.03,0],[0.5,0,0],[0.97,0.03,0],[1,0.4,0],[0.97,0.745,0],[0.5,1,0],[0.03,0.745,0],[0,0.4,0]];verticalLabelPosition=bottom;sketch=0;html=1;verticalAlign=top;aspect=fixed;align=center;pointerEvents=1;shape=mxgraph.cisco19.workstation;fillColor=#005073;strokeColor=none;flipH=1;" vertex="1" parent="1">
          <mxGeometry x="550" y="460" width="50" height="40" as="geometry" />
        </mxCell>
        <mxCell id="8YlUr7RpTHdSahh0esPy-82" value="" style="points=[[0.03,0.03,0],[0.5,0,0],[0.97,0.03,0],[1,0.4,0],[0.97,0.745,0],[0.5,1,0],[0.03,0.745,0],[0,0.4,0]];verticalLabelPosition=bottom;sketch=0;html=1;verticalAlign=top;aspect=fixed;align=center;pointerEvents=1;shape=mxgraph.cisco19.workstation;fillColor=#005073;strokeColor=none;flipH=1;" vertex="1" parent="1">
          <mxGeometry x="550" y="530" width="50" height="40" as="geometry" />
        </mxCell>
        <mxCell id="8YlUr7RpTHdSahh0esPy-83" value="" style="points=[[0.03,0.03,0],[0.5,0,0],[0.97,0.03,0],[1,0.4,0],[0.97,0.745,0],[0.5,1,0],[0.03,0.745,0],[0,0.4,0]];verticalLabelPosition=bottom;sketch=0;html=1;verticalAlign=top;aspect=fixed;align=center;pointerEvents=1;shape=mxgraph.cisco19.workstation;fillColor=#005073;strokeColor=none;flipH=1;" vertex="1" parent="1">
          <mxGeometry x="550" y="599.25" width="50" height="40" as="geometry" />
        </mxCell>
        <mxCell id="8YlUr7RpTHdSahh0esPy-84" value="" style="points=[[0.03,0.03,0],[0.5,0,0],[0.97,0.03,0],[1,0.4,0],[0.97,0.745,0],[0.5,1,0],[0.03,0.745,0],[0,0.4,0]];verticalLabelPosition=bottom;sketch=0;html=1;verticalAlign=top;aspect=fixed;align=center;pointerEvents=1;shape=mxgraph.cisco19.workstation;fillColor=#005073;strokeColor=none;flipH=1;" vertex="1" parent="1">
          <mxGeometry x="550" y="670" width="50" height="40" as="geometry" />
        </mxCell>
        <mxCell id="8YlUr7RpTHdSahh0esPy-85" value="" style="points=[[0.03,0.03,0],[0.5,0,0],[0.97,0.03,0],[1,0.4,0],[0.97,0.745,0],[0.5,1,0],[0.03,0.745,0],[0,0.4,0]];verticalLabelPosition=bottom;sketch=0;html=1;verticalAlign=top;aspect=fixed;align=center;pointerEvents=1;shape=mxgraph.cisco19.workstation;fillColor=#005073;strokeColor=none;flipH=1;" vertex="1" parent="1">
          <mxGeometry x="490" y="460" width="50" height="40" as="geometry" />
        </mxCell>
        <mxCell id="8YlUr7RpTHdSahh0esPy-86" value="" style="points=[[0.03,0.03,0],[0.5,0,0],[0.97,0.03,0],[1,0.4,0],[0.97,0.745,0],[0.5,1,0],[0.03,0.745,0],[0,0.4,0]];verticalLabelPosition=bottom;sketch=0;html=1;verticalAlign=top;aspect=fixed;align=center;pointerEvents=1;shape=mxgraph.cisco19.workstation;fillColor=#005073;strokeColor=none;flipH=1;" vertex="1" parent="1">
          <mxGeometry x="490" y="530" width="50" height="40" as="geometry" />
        </mxCell>
        <mxCell id="8YlUr7RpTHdSahh0esPy-87" value="" style="points=[[0.03,0.03,0],[0.5,0,0],[0.97,0.03,0],[1,0.4,0],[0.97,0.745,0],[0.5,1,0],[0.03,0.745,0],[0,0.4,0]];verticalLabelPosition=bottom;sketch=0;html=1;verticalAlign=top;aspect=fixed;align=center;pointerEvents=1;shape=mxgraph.cisco19.workstation;fillColor=#005073;strokeColor=none;flipH=1;" vertex="1" parent="1">
          <mxGeometry x="490" y="599.25" width="50" height="40" as="geometry" />
        </mxCell>
        <mxCell id="8YlUr7RpTHdSahh0esPy-88" value="" style="points=[[0.03,0.03,0],[0.5,0,0],[0.97,0.03,0],[1,0.4,0],[0.97,0.745,0],[0.5,1,0],[0.03,0.745,0],[0,0.4,0]];verticalLabelPosition=bottom;sketch=0;html=1;verticalAlign=top;aspect=fixed;align=center;pointerEvents=1;shape=mxgraph.cisco19.workstation;fillColor=#005073;strokeColor=none;flipH=1;" vertex="1" parent="1">
          <mxGeometry x="490" y="670" width="50" height="40" as="geometry" />
        </mxCell>
        <mxCell id="8YlUr7RpTHdSahh0esPy-89" value="" style="points=[[0.03,0.03,0],[0.5,0,0],[0.97,0.03,0],[1,0.4,0],[0.97,0.745,0],[0.5,1,0],[0.03,0.745,0],[0,0.4,0]];verticalLabelPosition=bottom;sketch=0;html=1;verticalAlign=top;aspect=fixed;align=center;pointerEvents=1;shape=mxgraph.cisco19.workstation;fillColor=#005073;strokeColor=none;" vertex="1" parent="1">
          <mxGeometry x="610" y="740" width="50" height="40" as="geometry" />
        </mxCell>
        <mxCell id="8YlUr7RpTHdSahh0esPy-90" value="" style="points=[[0.03,0.03,0],[0.5,0,0],[0.97,0.03,0],[1,0.4,0],[0.97,0.745,0],[0.5,1,0],[0.03,0.745,0],[0,0.4,0]];verticalLabelPosition=bottom;sketch=0;html=1;verticalAlign=top;aspect=fixed;align=center;pointerEvents=1;shape=mxgraph.cisco19.workstation;fillColor=#005073;strokeColor=none;flipH=1;" vertex="1" parent="1">
          <mxGeometry x="430" y="530" width="50" height="40" as="geometry" />
        </mxCell>
        <mxCell id="8YlUr7RpTHdSahh0esPy-91" value="" style="points=[[0.03,0.03,0],[0.5,0,0],[0.97,0.03,0],[1,0.4,0],[0.97,0.745,0],[0.5,1,0],[0.03,0.745,0],[0,0.4,0]];verticalLabelPosition=bottom;sketch=0;html=1;verticalAlign=top;aspect=fixed;align=center;pointerEvents=1;shape=mxgraph.cisco19.workstation;fillColor=#005073;strokeColor=none;flipH=1;" vertex="1" parent="1">
          <mxGeometry x="550" y="740" width="50" height="40" as="geometry" />
        </mxCell>
        <mxCell id="8YlUr7RpTHdSahh0esPy-92" value="" style="points=[[0.03,0.03,0],[0.5,0,0],[0.97,0.03,0],[1,0.4,0],[0.97,0.745,0],[0.5,1,0],[0.03,0.745,0],[0,0.4,0]];verticalLabelPosition=bottom;sketch=0;html=1;verticalAlign=top;aspect=fixed;align=center;pointerEvents=1;shape=mxgraph.cisco19.workstation;fillColor=#005073;strokeColor=none;flipH=1;" vertex="1" parent="1">
          <mxGeometry x="430" y="599.25" width="50" height="40" as="geometry" />
        </mxCell>
        <mxCell id="8YlUr7RpTHdSahh0esPy-93" value="" style="points=[[0.03,0.03,0],[0.5,0,0],[0.97,0.03,0],[1,0.4,0],[0.97,0.745,0],[0.5,1,0],[0.03,0.745,0],[0,0.4,0]];verticalLabelPosition=bottom;sketch=0;html=1;verticalAlign=top;aspect=fixed;align=center;pointerEvents=1;shape=mxgraph.cisco19.workstation;fillColor=#005073;strokeColor=none;flipH=1;" vertex="1" parent="1">
          <mxGeometry x="430" y="669.75" width="50" height="40" as="geometry" />
        </mxCell>
        <mxCell id="8YlUr7RpTHdSahh0esPy-94" value="" style="points=[[0.03,0.03,0],[0.5,0,0],[0.97,0.03,0],[1,0.4,0],[0.97,0.745,0],[0.5,1,0],[0.03,0.745,0],[0,0.4,0]];verticalLabelPosition=bottom;sketch=0;html=1;verticalAlign=top;aspect=fixed;align=center;pointerEvents=1;shape=mxgraph.cisco19.workstation;fillColor=#005073;strokeColor=none;flipH=1;" vertex="1" parent="1">
          <mxGeometry x="490" y="740" width="50" height="40" as="geometry" />
        </mxCell>
        <mxCell id="8YlUr7RpTHdSahh0esPy-95" value="" style="points=[[0.03,0.03,0],[0.5,0,0],[0.97,0.03,0],[1,0.4,0],[0.97,0.745,0],[0.5,1,0],[0.03,0.745,0],[0,0.4,0]];verticalLabelPosition=bottom;sketch=0;html=1;verticalAlign=top;aspect=fixed;align=center;pointerEvents=1;shape=mxgraph.cisco19.workstation;fillColor=#005073;strokeColor=none;flipH=1;" vertex="1" parent="1">
          <mxGeometry x="430" y="460" width="50" height="40" as="geometry" />
        </mxCell>
        <mxCell id="8YlUr7RpTHdSahh0esPy-96" value="" style="points=[[0.03,0.03,0],[0.5,0,0],[0.97,0.03,0],[1,0.4,0],[0.97,0.745,0],[0.5,1,0],[0.03,0.745,0],[0,0.4,0]];verticalLabelPosition=bottom;sketch=0;html=1;verticalAlign=top;aspect=fixed;align=center;pointerEvents=1;shape=mxgraph.cisco19.workstation;fillColor=#005073;strokeColor=none;flipH=1;" vertex="1" parent="1">
          <mxGeometry x="430" y="740" width="50" height="40" as="geometry" />
        </mxCell>
        <mxCell id="8YlUr7RpTHdSahh0esPy-97" style="edgeStyle=orthogonalEdgeStyle;rounded=0;orthogonalLoop=1;jettySize=auto;html=1;exitX=0.5;exitY=1;exitDx=0;exitDy=0;exitPerimeter=0;entryX=0.5;entryY=0;entryDx=0;entryDy=0;entryPerimeter=0;" edge="1" parent="1" source="8YlUr7RpTHdSahh0esPy-76" target="8YlUr7RpTHdSahh0esPy-77">
          <mxGeometry relative="1" as="geometry">
            <Array as="points">
              <mxPoint x="455" y="440" />
              <mxPoint x="635" y="440" />
            </Array>
          </mxGeometry>
        </mxCell>
        <mxCell id="8YlUr7RpTHdSahh0esPy-98" style="edgeStyle=orthogonalEdgeStyle;rounded=0;orthogonalLoop=1;jettySize=auto;html=1;exitX=0.5;exitY=1;exitDx=0;exitDy=0;exitPerimeter=0;entryX=0.5;entryY=0;entryDx=0;entryDy=0;entryPerimeter=0;" edge="1" parent="1" target="8YlUr7RpTHdSahh0esPy-81">
          <mxGeometry relative="1" as="geometry">
            <mxPoint x="455" y="430" as="sourcePoint" />
            <mxPoint x="575" y="480" as="targetPoint" />
            <Array as="points">
              <mxPoint x="455" y="440" />
              <mxPoint x="576" y="440" />
            </Array>
          </mxGeometry>
        </mxCell>
        <mxCell id="8YlUr7RpTHdSahh0esPy-99" style="edgeStyle=orthogonalEdgeStyle;rounded=0;orthogonalLoop=1;jettySize=auto;html=1;exitX=0.5;exitY=1;exitDx=0;exitDy=0;exitPerimeter=0;entryX=0.5;entryY=0;entryDx=0;entryDy=0;entryPerimeter=0;" edge="1" parent="1" source="8YlUr7RpTHdSahh0esPy-76" target="8YlUr7RpTHdSahh0esPy-85">
          <mxGeometry relative="1" as="geometry">
            <Array as="points">
              <mxPoint x="455" y="440" />
              <mxPoint x="515" y="440" />
            </Array>
          </mxGeometry>
        </mxCell>
        <mxCell id="8YlUr7RpTHdSahh0esPy-100" style="edgeStyle=orthogonalEdgeStyle;rounded=0;orthogonalLoop=1;jettySize=auto;html=1;exitX=0.5;exitY=1;exitDx=0;exitDy=0;exitPerimeter=0;entryX=0.5;entryY=0;entryDx=0;entryDy=0;entryPerimeter=0;" edge="1" parent="1" source="8YlUr7RpTHdSahh0esPy-76" target="8YlUr7RpTHdSahh0esPy-78">
          <mxGeometry relative="1" as="geometry">
            <Array as="points">
              <mxPoint x="455" y="440" />
              <mxPoint x="420" y="440" />
              <mxPoint x="420" y="510" />
              <mxPoint x="635" y="510" />
            </Array>
          </mxGeometry>
        </mxCell>
        <mxCell id="8YlUr7RpTHdSahh0esPy-101" style="edgeStyle=orthogonalEdgeStyle;rounded=0;orthogonalLoop=1;jettySize=auto;html=1;exitX=0.5;exitY=1;exitDx=0;exitDy=0;exitPerimeter=0;entryX=0.5;entryY=0;entryDx=0;entryDy=0;entryPerimeter=0;" edge="1" parent="1" source="8YlUr7RpTHdSahh0esPy-76" target="8YlUr7RpTHdSahh0esPy-82">
          <mxGeometry relative="1" as="geometry">
            <Array as="points">
              <mxPoint x="455" y="440" />
              <mxPoint x="420" y="440" />
              <mxPoint x="420" y="510" />
              <mxPoint x="575" y="510" />
            </Array>
          </mxGeometry>
        </mxCell>
        <mxCell id="8YlUr7RpTHdSahh0esPy-102" style="edgeStyle=orthogonalEdgeStyle;rounded=0;orthogonalLoop=1;jettySize=auto;html=1;exitX=0.5;exitY=1;exitDx=0;exitDy=0;exitPerimeter=0;entryX=0.5;entryY=0;entryDx=0;entryDy=0;entryPerimeter=0;" edge="1" parent="1" source="8YlUr7RpTHdSahh0esPy-76" target="8YlUr7RpTHdSahh0esPy-95">
          <mxGeometry relative="1" as="geometry" />
        </mxCell>
        <mxCell id="8YlUr7RpTHdSahh0esPy-103" style="edgeStyle=orthogonalEdgeStyle;rounded=0;orthogonalLoop=1;jettySize=auto;html=1;exitX=0.5;exitY=1;exitDx=0;exitDy=0;exitPerimeter=0;entryX=0.5;entryY=0;entryDx=0;entryDy=0;entryPerimeter=0;" edge="1" parent="1" source="8YlUr7RpTHdSahh0esPy-76" target="8YlUr7RpTHdSahh0esPy-86">
          <mxGeometry relative="1" as="geometry">
            <Array as="points">
              <mxPoint x="455" y="440" />
              <mxPoint x="420" y="440" />
              <mxPoint x="420" y="510" />
              <mxPoint x="515" y="510" />
            </Array>
          </mxGeometry>
        </mxCell>
        <mxCell id="8YlUr7RpTHdSahh0esPy-104" style="edgeStyle=orthogonalEdgeStyle;rounded=0;orthogonalLoop=1;jettySize=auto;html=1;exitX=0.5;exitY=1;exitDx=0;exitDy=0;exitPerimeter=0;entryX=0.5;entryY=0;entryDx=0;entryDy=0;entryPerimeter=0;" edge="1" parent="1" source="8YlUr7RpTHdSahh0esPy-76" target="8YlUr7RpTHdSahh0esPy-90">
          <mxGeometry relative="1" as="geometry">
            <Array as="points">
              <mxPoint x="455" y="440" />
              <mxPoint x="420" y="440" />
              <mxPoint x="420" y="510" />
              <mxPoint x="455" y="510" />
            </Array>
          </mxGeometry>
        </mxCell>
        <mxCell id="8YlUr7RpTHdSahh0esPy-105" style="edgeStyle=orthogonalEdgeStyle;rounded=0;orthogonalLoop=1;jettySize=auto;html=1;exitX=0.5;exitY=1;exitDx=0;exitDy=0;exitPerimeter=0;entryX=0.5;entryY=0;entryDx=0;entryDy=0;entryPerimeter=0;" edge="1" parent="1" source="8YlUr7RpTHdSahh0esPy-76" target="8YlUr7RpTHdSahh0esPy-79">
          <mxGeometry relative="1" as="geometry">
            <Array as="points">
              <mxPoint x="455" y="440" />
              <mxPoint x="420" y="440" />
              <mxPoint x="420" y="580" />
              <mxPoint x="635" y="580" />
            </Array>
          </mxGeometry>
        </mxCell>
        <mxCell id="8YlUr7RpTHdSahh0esPy-106" style="edgeStyle=orthogonalEdgeStyle;rounded=0;orthogonalLoop=1;jettySize=auto;html=1;exitX=0.5;exitY=1;exitDx=0;exitDy=0;exitPerimeter=0;entryX=0.5;entryY=0;entryDx=0;entryDy=0;entryPerimeter=0;" edge="1" parent="1" source="8YlUr7RpTHdSahh0esPy-76" target="8YlUr7RpTHdSahh0esPy-83">
          <mxGeometry relative="1" as="geometry">
            <Array as="points">
              <mxPoint x="455" y="440" />
              <mxPoint x="420" y="440" />
              <mxPoint x="420" y="580" />
              <mxPoint x="575" y="580" />
            </Array>
          </mxGeometry>
        </mxCell>
        <mxCell id="8YlUr7RpTHdSahh0esPy-107" style="edgeStyle=orthogonalEdgeStyle;rounded=0;orthogonalLoop=1;jettySize=auto;html=1;exitX=0.5;exitY=1;exitDx=0;exitDy=0;exitPerimeter=0;entryX=0.5;entryY=0;entryDx=0;entryDy=0;entryPerimeter=0;" edge="1" parent="1" source="8YlUr7RpTHdSahh0esPy-76" target="8YlUr7RpTHdSahh0esPy-87">
          <mxGeometry relative="1" as="geometry">
            <Array as="points">
              <mxPoint x="455" y="440" />
              <mxPoint x="420" y="440" />
              <mxPoint x="420" y="580" />
              <mxPoint x="515" y="580" />
            </Array>
          </mxGeometry>
        </mxCell>
        <mxCell id="8YlUr7RpTHdSahh0esPy-108" style="edgeStyle=orthogonalEdgeStyle;rounded=0;orthogonalLoop=1;jettySize=auto;html=1;exitX=0.5;exitY=1;exitDx=0;exitDy=0;exitPerimeter=0;entryX=0.5;entryY=0;entryDx=0;entryDy=0;entryPerimeter=0;" edge="1" parent="1" source="8YlUr7RpTHdSahh0esPy-76" target="8YlUr7RpTHdSahh0esPy-92">
          <mxGeometry relative="1" as="geometry">
            <Array as="points">
              <mxPoint x="455" y="440" />
              <mxPoint x="420" y="440" />
              <mxPoint x="420" y="580" />
              <mxPoint x="455" y="580" />
            </Array>
          </mxGeometry>
        </mxCell>
        <mxCell id="8YlUr7RpTHdSahh0esPy-109" style="edgeStyle=orthogonalEdgeStyle;rounded=0;orthogonalLoop=1;jettySize=auto;html=1;entryX=0.5;entryY=0;entryDx=0;entryDy=0;entryPerimeter=0;" edge="1" parent="1" source="8YlUr7RpTHdSahh0esPy-76" target="8YlUr7RpTHdSahh0esPy-80">
          <mxGeometry relative="1" as="geometry">
            <Array as="points">
              <mxPoint x="455" y="440" />
              <mxPoint x="420" y="440" />
              <mxPoint x="420" y="650" />
              <mxPoint x="635" y="650" />
            </Array>
          </mxGeometry>
        </mxCell>
        <mxCell id="8YlUr7RpTHdSahh0esPy-110" style="edgeStyle=orthogonalEdgeStyle;rounded=0;orthogonalLoop=1;jettySize=auto;html=1;exitX=0.5;exitY=1;exitDx=0;exitDy=0;exitPerimeter=0;entryX=0.5;entryY=0;entryDx=0;entryDy=0;entryPerimeter=0;" edge="1" parent="1" source="8YlUr7RpTHdSahh0esPy-76" target="8YlUr7RpTHdSahh0esPy-84">
          <mxGeometry relative="1" as="geometry">
            <Array as="points">
              <mxPoint x="455" y="440" />
              <mxPoint x="420" y="440" />
              <mxPoint x="420" y="650" />
              <mxPoint x="575" y="650" />
            </Array>
          </mxGeometry>
        </mxCell>
        <mxCell id="8YlUr7RpTHdSahh0esPy-111" style="edgeStyle=orthogonalEdgeStyle;rounded=0;orthogonalLoop=1;jettySize=auto;html=1;exitX=0.5;exitY=1;exitDx=0;exitDy=0;exitPerimeter=0;entryX=0.5;entryY=0;entryDx=0;entryDy=0;entryPerimeter=0;" edge="1" parent="1" source="8YlUr7RpTHdSahh0esPy-76" target="8YlUr7RpTHdSahh0esPy-88">
          <mxGeometry relative="1" as="geometry">
            <Array as="points">
              <mxPoint x="455" y="440" />
              <mxPoint x="420" y="440" />
              <mxPoint x="420" y="650" />
              <mxPoint x="515" y="650" />
            </Array>
          </mxGeometry>
        </mxCell>
        <mxCell id="8YlUr7RpTHdSahh0esPy-112" style="edgeStyle=orthogonalEdgeStyle;rounded=0;orthogonalLoop=1;jettySize=auto;html=1;exitX=0.5;exitY=1;exitDx=0;exitDy=0;exitPerimeter=0;entryX=0.5;entryY=0;entryDx=0;entryDy=0;entryPerimeter=0;" edge="1" parent="1" source="8YlUr7RpTHdSahh0esPy-76" target="8YlUr7RpTHdSahh0esPy-93">
          <mxGeometry relative="1" as="geometry">
            <Array as="points">
              <mxPoint x="455" y="440" />
              <mxPoint x="420" y="440" />
              <mxPoint x="420" y="650" />
              <mxPoint x="455" y="650" />
            </Array>
          </mxGeometry>
        </mxCell>
        <mxCell id="8YlUr7RpTHdSahh0esPy-113" style="edgeStyle=orthogonalEdgeStyle;rounded=0;orthogonalLoop=1;jettySize=auto;html=1;exitX=0.5;exitY=1;exitDx=0;exitDy=0;exitPerimeter=0;entryX=0.5;entryY=0;entryDx=0;entryDy=0;entryPerimeter=0;" edge="1" parent="1" source="8YlUr7RpTHdSahh0esPy-76" target="8YlUr7RpTHdSahh0esPy-89">
          <mxGeometry relative="1" as="geometry">
            <Array as="points">
              <mxPoint x="455" y="440" />
              <mxPoint x="420" y="440" />
              <mxPoint x="420" y="720" />
              <mxPoint x="635" y="720" />
            </Array>
          </mxGeometry>
        </mxCell>
        <mxCell id="8YlUr7RpTHdSahh0esPy-114" style="edgeStyle=orthogonalEdgeStyle;rounded=0;orthogonalLoop=1;jettySize=auto;html=1;exitX=0.5;exitY=1;exitDx=0;exitDy=0;exitPerimeter=0;entryX=0.5;entryY=0;entryDx=0;entryDy=0;entryPerimeter=0;" edge="1" parent="1" source="8YlUr7RpTHdSahh0esPy-76" target="8YlUr7RpTHdSahh0esPy-91">
          <mxGeometry relative="1" as="geometry">
            <Array as="points">
              <mxPoint x="455" y="440" />
              <mxPoint x="420" y="440" />
              <mxPoint x="420" y="720" />
              <mxPoint x="575" y="720" />
            </Array>
          </mxGeometry>
        </mxCell>
        <mxCell id="8YlUr7RpTHdSahh0esPy-115" style="edgeStyle=orthogonalEdgeStyle;rounded=0;orthogonalLoop=1;jettySize=auto;html=1;exitX=0.5;exitY=1;exitDx=0;exitDy=0;exitPerimeter=0;entryX=0.5;entryY=0;entryDx=0;entryDy=0;entryPerimeter=0;" edge="1" parent="1" source="8YlUr7RpTHdSahh0esPy-76" target="8YlUr7RpTHdSahh0esPy-94">
          <mxGeometry relative="1" as="geometry">
            <Array as="points">
              <mxPoint x="455" y="440" />
              <mxPoint x="420" y="440" />
              <mxPoint x="420" y="720" />
              <mxPoint x="515" y="720" />
            </Array>
          </mxGeometry>
        </mxCell>
        <mxCell id="8YlUr7RpTHdSahh0esPy-116" style="edgeStyle=orthogonalEdgeStyle;rounded=0;orthogonalLoop=1;jettySize=auto;html=1;exitX=0.5;exitY=1;exitDx=0;exitDy=0;exitPerimeter=0;entryX=0.5;entryY=0;entryDx=0;entryDy=0;entryPerimeter=0;" edge="1" parent="1" source="8YlUr7RpTHdSahh0esPy-76" target="8YlUr7RpTHdSahh0esPy-96">
          <mxGeometry relative="1" as="geometry">
            <Array as="points">
              <mxPoint x="455" y="440" />
              <mxPoint x="420" y="440" />
              <mxPoint x="420" y="720" />
              <mxPoint x="455" y="720" />
            </Array>
          </mxGeometry>
        </mxCell>
        <mxCell id="8YlUr7RpTHdSahh0esPy-118" style="edgeStyle=orthogonalEdgeStyle;rounded=0;orthogonalLoop=1;jettySize=auto;html=1;exitX=0.5;exitY=1;exitDx=0;exitDy=0;exitPerimeter=0;entryX=0.5;entryY=0;entryDx=0;entryDy=0;entryPerimeter=0;" edge="1" parent="1" source="8YlUr7RpTHdSahh0esPy-1" target="8YlUr7RpTHdSahh0esPy-5">
          <mxGeometry relative="1" as="geometry">
            <Array as="points">
              <mxPoint x="355" y="440" />
            </Array>
          </mxGeometry>
        </mxCell>
        <mxCell id="8YlUr7RpTHdSahh0esPy-119" style="edgeStyle=orthogonalEdgeStyle;rounded=0;orthogonalLoop=1;jettySize=auto;html=1;exitX=0.5;exitY=1;exitDx=0;exitDy=0;exitPerimeter=0;entryX=0.5;entryY=0;entryDx=0;entryDy=0;entryPerimeter=0;" edge="1" parent="1" source="8YlUr7RpTHdSahh0esPy-1" target="8YlUr7RpTHdSahh0esPy-4">
          <mxGeometry relative="1" as="geometry">
            <Array as="points">
              <mxPoint x="355" y="440" />
              <mxPoint x="390" y="440" />
              <mxPoint x="390" y="510" />
              <mxPoint x="85" y="510" />
            </Array>
          </mxGeometry>
        </mxCell>
        <mxCell id="8YlUr7RpTHdSahh0esPy-120" style="edgeStyle=orthogonalEdgeStyle;rounded=0;orthogonalLoop=1;jettySize=auto;html=1;exitX=0.5;exitY=1;exitDx=0;exitDy=0;exitPerimeter=0;entryX=0.5;entryY=0;entryDx=0;entryDy=0;entryPerimeter=0;" edge="1" parent="1" source="8YlUr7RpTHdSahh0esPy-76" target="8YlUr7RpTHdSahh0esPy-6">
          <mxGeometry relative="1" as="geometry">
            <Array as="points">
              <mxPoint x="455" y="440" />
              <mxPoint x="735" y="440" />
            </Array>
          </mxGeometry>
        </mxCell>
        <mxCell id="8YlUr7RpTHdSahh0esPy-121" style="edgeStyle=orthogonalEdgeStyle;rounded=0;orthogonalLoop=1;jettySize=auto;html=1;exitX=0.5;exitY=1;exitDx=0;exitDy=0;exitPerimeter=0;entryX=0.5;entryY=0;entryDx=0;entryDy=0;entryPerimeter=0;" edge="1" parent="1" source="8YlUr7RpTHdSahh0esPy-76" target="8YlUr7RpTHdSahh0esPy-7">
          <mxGeometry relative="1" as="geometry">
            <Array as="points">
              <mxPoint x="455" y="440" />
              <mxPoint x="420" y="440" />
              <mxPoint x="420" y="510" />
              <mxPoint x="715" y="510" />
            </Array>
          </mxGeometry>
        </mxCell>
        <mxCell id="8YlUr7RpTHdSahh0esPy-122" style="edgeStyle=orthogonalEdgeStyle;rounded=0;orthogonalLoop=1;jettySize=auto;html=1;exitX=0.5;exitY=0;exitDx=0;exitDy=0;exitPerimeter=0;entryX=0.5;entryY=1;entryDx=0;entryDy=0;entryPerimeter=0;endArrow=none;endFill=0;" edge="1" parent="1" source="8YlUr7RpTHdSahh0esPy-76" target="8YlUr7RpTHdSahh0esPy-3">
          <mxGeometry relative="1" as="geometry" />
        </mxCell>
        <mxCell id="8YlUr7RpTHdSahh0esPy-126" value="&lt;div&gt;192.168.1.10/24&lt;/div&gt;" style="text;whiteSpace=wrap;html=1;" vertex="1" parent="1">
          <mxGeometry x="690" y="410" width="90" height="40" as="geometry" />
        </mxCell>
        <mxCell id="8YlUr7RpTHdSahh0esPy-127" value="&lt;div&gt;192.168.1.11/24&lt;/div&gt;" style="text;whiteSpace=wrap;html=1;" vertex="1" parent="1">
          <mxGeometry x="690" y="605" width="90" height="40" as="geometry" />
        </mxCell>
        <mxCell id="8YlUr7RpTHdSahh0esPy-128" value="&lt;div&gt;192.168.1.2/24&lt;/div&gt;" style="text;whiteSpace=wrap;html=1;" vertex="1" parent="1">
          <mxGeometry x="30" y="410" width="90" height="40" as="geometry" />
        </mxCell>
        <mxCell id="8YlUr7RpTHdSahh0esPy-129" value="&lt;div&gt;192.168.1.3/24&lt;/div&gt;" style="text;whiteSpace=wrap;html=1;" vertex="1" parent="1">
          <mxGeometry x="30" y="600" width="90" height="40" as="geometry" />
        </mxCell>
        <mxCell id="8YlUr7RpTHdSahh0esPy-130" value="&lt;b&gt;ISP&lt;/b&gt;" style="shape=mxgraph.cisco.storage.cloud;sketch=0;html=1;pointerEvents=1;dashed=0;fillColor=#036897;strokeColor=#ffffff;strokeWidth=2;verticalLabelPosition=bottom;verticalAlign=top;align=center;outlineConnect=0;" vertex="1" parent="1">
          <mxGeometry x="355.5" y="150" width="99" height="66" as="geometry" />
        </mxCell>
        <mxCell id="8YlUr7RpTHdSahh0esPy-131" style="edgeStyle=orthogonalEdgeStyle;rounded=0;orthogonalLoop=1;jettySize=auto;html=1;exitX=0.5;exitY=0;exitDx=0;exitDy=0;exitPerimeter=0;entryX=0.5;entryY=0.99;entryDx=0;entryDy=0;entryPerimeter=0;" edge="1" parent="1" source="8YlUr7RpTHdSahh0esPy-3" target="8YlUr7RpTHdSahh0esPy-130">
          <mxGeometry relative="1" as="geometry" />
        </mxCell>
        <mxCell id="8YlUr7RpTHdSahh0esPy-139" value="&lt;div&gt;192.168.1.1/29&lt;/div&gt;&lt;div&gt;&lt;div&gt;192.168.1.9/29&lt;/div&gt;&lt;div&gt;&lt;div&gt;192.168.1.65/26&lt;/div&gt;&lt;/div&gt;&lt;/div&gt;" style="text;whiteSpace=wrap;html=1;" vertex="1" parent="1">
          <mxGeometry x="430" y="270" width="90" height="40" as="geometry" />
        </mxCell>
      </root>
    </mxGraphModel>
  </diagram>
</mxfile>
